<svg xmlns="http://www.w3.org/2000/svg" width="98" height="80" fill="none" xmlns:v="https://vecta.io/nano"><circle opacity=".2" cx="49" cy="40" r="37" fill="#f2c94c"/><path d="M90.09 55c-.735 0-1.47-.28-2.03-.838-1.12-1.117-1.12-2.93 0-4.046A14.18 14.18 0 0 0 92.258 40a14.18 14.18 0 0 0-4.197-10.116c-1.12-1.117-1.12-2.93 0-4.046a2.88 2.88 0 0 1 4.06 0C95.912 29.616 98 34.645 98 40s-2.088 10.384-5.88 14.162c-.56.56-1.295.838-2.03.838z" fill="#ff8744"/><path d="M81.97 46.907c-.735 0-1.47-.28-2.03-.838-1.12-1.117-1.12-2.93 0-4.046.542-.54.84-1.26.84-2.023a2.84 2.84 0 0 0-.841-2.023c-1.12-1.117-1.12-2.93 0-4.046a2.88 2.88 0 0 1 4.06 0c3.358 3.347 3.358 8.792 0 12.14-.56.56-1.295.838-2.03.838z" fill="#ffb444"/><path d="M7.91 55c-.735 0-1.47-.28-2.03-.838C2.088 50.384 0 45.355 0 40s2.088-10.384 5.88-14.162a2.88 2.88 0 0 1 4.06 0c1.12 1.117 1.12 2.93 0 4.046A14.18 14.18 0 0 0 5.742 40a14.18 14.18 0 0 0 4.197 10.116c1.12 1.117 1.12 2.93 0 4.046-.56.56-1.295.838-2.03.838z" fill="#ff8744"/><path d="M16.03 46.908c-.735 0-1.47-.28-2.03-.838-3.358-3.347-3.358-8.792 0-12.14a2.88 2.88 0 0 1 4.06 0c1.12 1.117 1.12 2.93 0 4.046-.542.54-.84 1.26-.84 2.023s.3 1.483.84 2.023c1.12 1.117 1.12 2.93 0 4.046-.56.56-1.295.838-2.03.838z" fill="#ffb444"/><path d="M49 80a10.98 10.98 0 0 0 9.918-6.25H39.082A10.98 10.98 0 0 0 49 80zm5.488-72.852V5.47a5.488 5.488 0 0 0-10.976 0v1.68A25.95 25.95 0 0 1 49 6.563a25.92 25.92 0 0 1 5.488.586zM22.524 64.375h-1.747a2.35 2.35 0 0 0-2.352 2.344 2.35 2.35 0 0 0 2.352 2.344h56.446a2.35 2.35 0 0 0 2.352-2.344 2.35 2.35 0 0 0-2.352-2.344h-1.747a45.08 45.08 0 0 1-2.75-6.25H25.273a44.96 44.96 0 0 1-2.75 6.25zm47.643-21.19v-10.84c0-11.63-9.496-21.094-21.167-21.094s-21.167 9.463-21.167 21.094v10.84a44.92 44.92 0 0 1-1.188 10.254h44.7a44.9 44.9 0 0 1-1.188-10.254z" fill="#ffd644"/></svg>