<svg xmlns="http://www.w3.org/2000/svg" width="24" height="24" fill="none"><path d="M12 1.5c5.79 0 10.5 4.71 10.5 10.5S17.79 22.5 12 22.5 1.5 17.79 1.5 12 6.21 1.5 12 1.5zM12 0C5.373 0 0 5.373 0 12s5.373 12 12 12 12-5.373 12-12S18.627 0 12 0zm6.7 16.012l-.068-.205c-.158-.472-.68-.964-1.16-1.096l-1.774-.485c-.48-.13-1.166.045-1.52.398l-.642.642c-2.332-.63-4.162-2.46-4.792-4.793l.642-.642c.352-.352.527-1.037.397-1.52L9.292 6.54c-.13-.48-.626-1.002-1.097-1.16l-.202-.067a1.61 1.61 0 0 0-1.5.355l-.96.96c-.17.17-.28.658-.28.66-.032 3.05 1.163 5.987 3.32 8.145a11.34 11.34 0 0 0 8.117 3.318c.016 0 .52-.107.7-.278l.96-.96a1.61 1.61 0 0 0 .353-1.497z" fill="#333"/></svg>