<svg xmlns="http://www.w3.org/2000/svg" width="20" height="20" fill="none"><g fill="#cc1f26"><path d="M7.642 12.603v3.9a1.3 1.3 0 0 0 1.301 1.301h5.894L17.52 20v-2.195h1.18A1.3 1.3 0 0 0 20 16.504V8.618a1.3 1.3 0 0 0-1.301-1.301h-6.096l-4.96 5.286z"/><path d="M6.302 0C2.82 0 0 2.82 0 6.302a6.27 6.27 0 0 0 1.204 3.705l-.777 1.707L2.35 11.2c1.08.872 2.455 1.394 3.952 1.394 3.48 0 6.302-2.82 6.302-6.302S9.782 0 6.302 0z"/></g><path d="M15.844 13.764c.138-.065.233-.205.233-.367 0-.224-.182-.407-.407-.407h-.166l-1.3-2.988c-.065-.148-.2-.243-.372-.243s-.307.095-.372.243L12.138 13h-.166c-.225 0-.407.182-.407.407 0 .163.096.302.233.367l-.488 1.113c-.1.206.003.445.2.536s.445-.003.536-.2l.615-1.4h2.304l.614 1.4c.067.152.216.243.373.243.055 0 .1-.01.163-.034a.41.41 0 0 0 .21-.536l-.488-1.113zM13.026 13l.795-1.813.795 1.813h-1.6zm-9.15-4.225c-.197.108-.27.355-.16.552.074.135.213.2.357.2.066 0 .133-.016.195-.05a4.65 4.65 0 0 0 2.012-2.182 4.65 4.65 0 0 0 2.012 2.182c.062.034.13.05.195.05.144 0 .283-.076.357-.2.108-.197.036-.444-.16-.552A3.85 3.85 0 0 1 6.73 5.978h1.805c.225 0 .406-.182.406-.407s-.182-.406-.406-.406h-1.85V3.47c0-.225-.182-.406-.407-.406s-.407.182-.407.406v1.694H4.403c-.225 0-.406.182-.406.406s.182.407.406.407h1.425c-.177 1.175-.892 2.215-1.953 2.797z" fill="#fff"/></svg>