<?xml version="1.0" encoding="utf-8"?>
<!-- Generator: Adobe Illustrator 16.0.0, SVG Export Plug-In . SVG Version: 6.00 Build 0)  -->
<!DOCTYPE svg PUBLIC "-//W3C//DTD SVG 1.1//EN" "http://www.w3.org/Graphics/SVG/1.1/DTD/svg11.dtd">
<svg version="1.1" xmlns="http://www.w3.org/2000/svg" xmlns:xlink="http://www.w3.org/1999/xlink" x="0px" y="0px"
	 width="436.594px" height="500px" viewBox="0 0 436.594 500" enable-background="new 0 0 436.594 500" xml:space="preserve">
<g id="BACKGROUND">
</g>
<g id="OBJECTS">
	<g>
		<g>
			<linearGradient id="SVGID_1_" gradientUnits="userSpaceOnUse" x1="87.3657" y1="1.3105" x2="280.4189" y2="468.9881">
				<stop  offset="0" style="stop-color:#DD15FF"/>
				<stop  offset="0.0422" style="stop-color:#D114F7"/>
				<stop  offset="0.2996" style="stop-color:#8F0DC9"/>
				<stop  offset="0.5326" style="stop-color:#5A07A4"/>
				<stop  offset="0.7335" style="stop-color:#34038A"/>
				<stop  offset="0.8943" style="stop-color:#1D017A"/>
				<stop  offset="0.9948" style="stop-color:#140074"/>
			</linearGradient>
			<path fill="url(#SVGID_1_)" d="M256.986,310.053l-98.819-98.813c-13.794-13.795-21.391-32.138-21.391-51.649
				c0-19.517,7.596-37.861,21.387-51.651c9.169-9.166,20.742-15.73,33.475-18.981l9.024-2.3
				c-0.014-23.981-0.026-60.936-0.032-70.438l-0.009-13.912l-13.764,2.023c-33.603,4.928-64.055,20.224-88.066,44.23
				C69.133,78.225,52.8,117.656,52.8,159.591c0,41.937,16.333,81.367,45.991,111.026l98.828,98.822
				c7.932,7.924,18.474,12.289,29.68,12.289c11.202,0,21.74-4.365,29.69-12.295C273.355,353.057,273.355,326.42,256.986,310.053z"/>
		</g>
		<linearGradient id="SVGID_2_" gradientUnits="userSpaceOnUse" x1="252.9038" y1="-67.021" x2="445.9582" y2="400.6596">
			<stop  offset="0" style="stop-color:#DD15FF"/>
			<stop  offset="0.0422" style="stop-color:#D114F7"/>
			<stop  offset="0.2996" style="stop-color:#8F0DC9"/>
			<stop  offset="0.5326" style="stop-color:#5A07A4"/>
			<stop  offset="0.7335" style="stop-color:#34038A"/>
			<stop  offset="0.8943" style="stop-color:#1D017A"/>
			<stop  offset="0.9948" style="stop-color:#140074"/>
		</linearGradient>
		<path fill="url(#SVGID_2_)" d="M419.67,147.379l-98.819-98.817c-19.08-19.077-42.993-32.969-69.151-40.164L236.485,4.21v87.019
			l6.563,3.343c6.86,3.499,13.061,7.993,18.43,13.365l98.811,98.819c7.933,7.922,18.478,12.287,29.688,12.287
			c0.004,0,0.004,0,0.004,0c11.21,0,21.755-4.365,29.689-12.293C436.042,190.385,436.042,163.75,419.67,147.379z"/>
		<linearGradient id="SVGID_3_" gradientUnits="userSpaceOnUse" x1="95.9888" y1="-2.2456" x2="289.0406" y2="465.4289">
			<stop  offset="0" style="stop-color:#DD15FF"/>
			<stop  offset="0.0422" style="stop-color:#D114F7"/>
			<stop  offset="0.2996" style="stop-color:#8F0DC9"/>
			<stop  offset="0.5326" style="stop-color:#5A07A4"/>
			<stop  offset="0.7335" style="stop-color:#34038A"/>
			<stop  offset="0.8943" style="stop-color:#1D017A"/>
			<stop  offset="0.9948" style="stop-color:#140074"/>
		</linearGradient>
		<path opacity="0.3" fill="url(#SVGID_3_)" d="M259.867,313.236c-0.898-1.098-1.857-2.16-2.881-3.184l-98.819-98.813
			c-13.794-13.795-21.391-32.138-21.391-51.649c0-19.517,7.596-37.861,21.387-51.651c1.147-1.146,2.328-2.251,3.547-3.313
			c8.532-7.441,18.785-12.822,29.928-15.668l9.018-2.299c-0.011-15.424-0.02-35.043-0.025-40.102L200.61,32.1l-14.215,2.653
			c-25.248,4.713-48.216,16.827-66.421,35.03c-49.532,49.537-49.532,130.147,0.002,179.689l127.248,127.234
			c2.055-1.111,4.006-2.422,5.867-3.875l1.063-0.916l0.13-0.031c0.925-0.783,1.84-1.584,2.706-2.451
			C272.335,354.084,273.29,329.711,259.867,313.236z"/>
		<linearGradient id="SVGID_4_" gradientUnits="userSpaceOnUse" x1="245.7534" y1="-64.0688" x2="438.8065" y2="403.6087">
			<stop  offset="0" style="stop-color:#DD15FF"/>
			<stop  offset="0.0422" style="stop-color:#D114F7"/>
			<stop  offset="0.2996" style="stop-color:#8F0DC9"/>
			<stop  offset="0.5326" style="stop-color:#5A07A4"/>
			<stop  offset="0.7335" style="stop-color:#34038A"/>
			<stop  offset="0.8943" style="stop-color:#1D017A"/>
			<stop  offset="0.9948" style="stop-color:#140074"/>
		</linearGradient>
		<path opacity="0.3" fill="url(#SVGID_4_)" d="M363.472,209.623c1.19,0.976,2.439,1.859,3.719,2.693
			c6.73,4.364,14.572,6.727,22.783,6.727c0.003,0,0.003,0,0.007,0c11.192,0,21.724-4.356,29.652-12.26l0.102-0.102
			c2.916-2.93,5.295-6.196,7.168-9.663L299.667,69.781c-13.444-13.446-29.3-23.479-47.122-29.829l-16.061-5.721v56.997l6.563,3.343
			c6.86,3.499,13.061,7.993,18.43,13.365l98.811,98.819c0.992,0.992,2.024,1.925,3.095,2.801
			C363.412,209.58,363.443,209.599,363.472,209.623z"/>
		<linearGradient id="SVGID_5_" gradientUnits="userSpaceOnUse" x1="-29.856" y1="49.6997" x2="163.1983" y2="517.3801">
			<stop  offset="0" style="stop-color:#DD15FF"/>
			<stop  offset="0.0422" style="stop-color:#D114F7"/>
			<stop  offset="0.2996" style="stop-color:#8F0DC9"/>
			<stop  offset="0.5326" style="stop-color:#5A07A4"/>
			<stop  offset="0.7335" style="stop-color:#34038A"/>
			<stop  offset="0.8943" style="stop-color:#1D017A"/>
			<stop  offset="0.9948" style="stop-color:#140074"/>
		</linearGradient>
		<path fill="url(#SVGID_5_)" d="M194.078,406.68c-6.939-3.549-13.143-8.031-18.443-13.33l-98.808-98.814
			c-7.93-7.924-18.475-12.291-29.687-12.291c-11.215,0-21.757,4.367-29.694,12.297c-16.357,16.363-16.36,42.996,0.003,59.375
			l98.816,98.811c19.141,19.143,43.054,33.057,69.148,40.232l15.217,4.188v-87.119L194.078,406.68z"/>
		<linearGradient id="SVGID_6_" gradientUnits="userSpaceOnUse" x1="135.6646" y1="-18.6235" x2="328.7169" y2="449.052">
			<stop  offset="0" style="stop-color:#DD15FF"/>
			<stop  offset="0.0422" style="stop-color:#D114F7"/>
			<stop  offset="0.2996" style="stop-color:#8F0DC9"/>
			<stop  offset="0.5326" style="stop-color:#5A07A4"/>
			<stop  offset="0.7335" style="stop-color:#34038A"/>
			<stop  offset="0.8943" style="stop-color:#1D017A"/>
			<stop  offset="0.9948" style="stop-color:#140074"/>
		</linearGradient>
		<path fill="url(#SVGID_6_)" d="M338.321,230.674l-98.81-98.81c-7.928-7.931-18.472-12.299-29.687-12.299
			c-11.214,0-21.759,4.366-29.7,12.299c-16.35,16.364-16.35,42.994,0.001,59.368l98.825,98.818
			c13.794,13.793,21.396,32.135,21.396,51.652c0,19.51-7.603,37.855-21.397,51.658c-9.207,9.205-20.754,15.779-33.414,19.01
			l-9.051,2.311V499l13.757-2.006c33.563-4.891,64.018-20.197,88.082-44.268c29.655-29.664,45.989-69.09,45.989-111.023
			C384.313,299.768,367.979,260.34,338.321,230.674z"/>
		<linearGradient id="SVGID_7_" gradientUnits="userSpaceOnUse" x1="-22.728" y1="46.7598" x2="170.3245" y2="514.4359">
			<stop  offset="0" style="stop-color:#DD15FF"/>
			<stop  offset="0.0422" style="stop-color:#D114F7"/>
			<stop  offset="0.2996" style="stop-color:#8F0DC9"/>
			<stop  offset="0.5326" style="stop-color:#5A07A4"/>
			<stop  offset="0.7335" style="stop-color:#34038A"/>
			<stop  offset="0.8943" style="stop-color:#1D017A"/>
			<stop  offset="0.9948" style="stop-color:#140074"/>
		</linearGradient>
		<path opacity="0.3" fill="url(#SVGID_7_)" d="M194.078,406.68c-6.939-3.549-13.143-8.031-18.443-13.33l-98.808-98.814
			c-7.93-7.924-18.475-12.291-29.687-12.291c-1.385,0-2.759,0.072-4.118,0.203c-0.463,0.045-0.912,0.133-1.368,0.195
			c-0.895,0.115-1.789,0.223-2.667,0.393c-0.53,0.104-1.046,0.26-1.57,0.383c-0.791,0.186-1.584,0.355-2.361,0.588
			c-0.547,0.164-1.074,0.375-1.612,0.561c-0.732,0.252-1.472,0.492-2.193,0.785c-0.538,0.219-1.062,0.488-1.592,0.732
			c-0.689,0.316-1.388,0.621-2.061,0.975c-0.53,0.277-1.035,0.6-1.55,0.9c-0.648,0.379-1.303,0.744-1.932,1.158
			c-0.51,0.336-0.999,0.715-1.5,1.078c-0.597,0.434-1.206,0.857-1.786,1.324c-0.493,0.398-0.961,0.836-1.441,1.258
			c-0.654,0.578-1.321,1.141-1.943,1.764c-2.961,2.963-5.37,6.27-7.259,9.785l127.26,127.256
			c13.451,13.449,29.306,23.482,47.121,29.83l16.063,5.723v-57.107L194.078,406.68z"/>
		<linearGradient id="SVGID_8_" gradientUnits="userSpaceOnUse" x1="127.0176" y1="-15.0552" x2="320.0714" y2="452.6239">
			<stop  offset="0" style="stop-color:#DD15FF"/>
			<stop  offset="0.0422" style="stop-color:#D114F7"/>
			<stop  offset="0.2996" style="stop-color:#8F0DC9"/>
			<stop  offset="0.5326" style="stop-color:#5A07A4"/>
			<stop  offset="0.7335" style="stop-color:#34038A"/>
			<stop  offset="0.8943" style="stop-color:#1D017A"/>
			<stop  offset="0.9948" style="stop-color:#140074"/>
		</linearGradient>
		<path opacity="0.3" fill="url(#SVGID_8_)" d="M300.347,341.703c0,19.51-7.603,37.855-21.397,51.658
			c-9.207,9.205-20.754,15.779-33.414,19.01l-9.051,2.311v54.592l14.232-2.654c25.253-4.717,48.226-16.832,66.432-35.043
			c49.531-49.535,49.531-130.139,0-179.682L189.851,124.61c-3.531,1.914-6.806,4.338-9.727,7.254
			c-0.875,0.88-1.678,1.795-2.46,2.722c-0.132,0.162-0.289,0.31-0.421,0.466c-0.621,0.771-1.18,1.578-1.743,2.381
			c-0.242,0.345-0.517,0.672-0.746,1.021c-0.443,0.672-0.819,1.374-1.216,2.063c-0.295,0.509-0.623,1-0.894,1.515
			c-0.289,0.55-0.518,1.123-0.779,1.688c-0.318,0.678-0.665,1.348-0.944,2.044c-0.171,0.42-0.292,0.854-0.448,1.279
			c-0.313,0.852-0.638,1.699-0.892,2.565c-0.108,0.36-0.168,0.727-0.268,1.089c-0.25,0.947-0.504,1.892-0.69,2.847
			c-0.061,0.318-0.083,0.643-0.136,0.961c-0.171,1.009-0.339,2.02-0.436,3.034c-0.037,0.357-0.028,0.715-0.052,1.076
			c-0.068,0.98-0.139,1.965-0.139,2.946c0,0.609,0.061,1.217,0.087,1.827c0.03,0.731,0.037,1.466,0.107,2.193
			c0.101,1.063,0.273,2.121,0.454,3.179c0.046,0.271,0.068,0.541,0.12,0.813c1.53,7.937,5.363,15.521,11.495,21.661l98.825,98.818
			C292.745,303.844,300.347,322.186,300.347,341.703z"/>
	</g>
</g>
<g id="DESIGNED_BY_FREEPIK">
</g>
</svg>
